<mxfile host="app.diagrams.net" modified="2024-02-25T16:09:55.267Z" agent="Mozilla/5.0 (Windows NT 10.0; Win64; x64) AppleWebKit/537.36 (KHTML, like Gecko) Chrome/121.0.0.0 Safari/537.36 Edg/121.0.0.0" etag="hhMVO8z81acDZ_tjhS58" version="23.1.6" type="device">
  <diagram name="Página-1" id="3hHufM-FNqg1YWVWZAnr">
    <mxGraphModel dx="1580" dy="1617" grid="1" gridSize="10" guides="1" tooltips="1" connect="1" arrows="1" fold="1" page="1" pageScale="1" pageWidth="827" pageHeight="1169" math="0" shadow="0">
      <root>
        <mxCell id="0" />
        <mxCell id="1" parent="0" />
        <mxCell id="jVra7vX5_g9JPuBn6rs2-32" style="rounded=0;orthogonalLoop=1;jettySize=auto;html=1;exitX=0.5;exitY=1;exitDx=0;exitDy=0;entryX=0.5;entryY=0;entryDx=0;entryDy=0;startArrow=none;startFill=0;strokeWidth=2;endArrow=ERmandOne;endFill=0;" parent="1" source="jVra7vX5_g9JPuBn6rs2-26" edge="1" target="b7vmmGnuXxZgTWAznQhB-1">
          <mxGeometry relative="1" as="geometry">
            <mxPoint x="270" y="-370" as="targetPoint" />
          </mxGeometry>
        </mxCell>
        <mxCell id="yvmqaUQFZ_uZkAevJMEQ-10" style="edgeStyle=orthogonalEdgeStyle;rounded=0;orthogonalLoop=1;jettySize=auto;html=1;exitX=1;exitY=0.5;exitDx=0;exitDy=0;entryX=0;entryY=0.5;entryDx=0;entryDy=0;endArrow=none;endFill=0;" edge="1" parent="1" source="we_YAr6GqCYZWqf67xZB-1" target="we_YAr6GqCYZWqf67xZB-3">
          <mxGeometry relative="1" as="geometry" />
        </mxCell>
        <mxCell id="we_YAr6GqCYZWqf67xZB-1" value="PAISES" style="whiteSpace=wrap;html=1;align=center;fillColor=#A9C4EB;fontStyle=1" parent="1" vertex="1">
          <mxGeometry x="230" y="-650" width="100" height="40" as="geometry" />
        </mxCell>
        <mxCell id="jVra7vX5_g9JPuBn6rs2-33" style="edgeStyle=orthogonalEdgeStyle;rounded=0;orthogonalLoop=1;jettySize=auto;html=1;exitX=0.5;exitY=1;exitDx=0;exitDy=0;entryX=0.5;entryY=0;entryDx=0;entryDy=0;endArrow=none;endFill=0;startArrow=ERmandOne;startFill=0;strokeWidth=2;" parent="1" source="we_YAr6GqCYZWqf67xZB-2" target="jVra7vX5_g9JPuBn6rs2-29" edge="1">
          <mxGeometry relative="1" as="geometry" />
        </mxCell>
        <mxCell id="jVra7vX5_g9JPuBn6rs2-41" style="rounded=0;orthogonalLoop=1;jettySize=auto;html=1;exitX=1;exitY=0.5;exitDx=0;exitDy=0;entryX=0;entryY=0.5;entryDx=0;entryDy=0;endArrow=none;endFill=0;startArrow=ERzeroToMany;startFill=0;strokeWidth=2;" parent="1" source="we_YAr6GqCYZWqf67xZB-2" target="jVra7vX5_g9JPuBn6rs2-40" edge="1">
          <mxGeometry relative="1" as="geometry" />
        </mxCell>
        <mxCell id="we_YAr6GqCYZWqf67xZB-2" value="SEDE" style="whiteSpace=wrap;html=1;align=center;fillColor=#A9C4EB;fontStyle=1" parent="1" vertex="1">
          <mxGeometry x="-213.5" y="-644" width="100" height="40" as="geometry" />
        </mxCell>
        <mxCell id="we_YAr6GqCYZWqf67xZB-3" value="PIB" style="ellipse;whiteSpace=wrap;html=1;align=center;" parent="1" vertex="1">
          <mxGeometry x="380" y="-650" width="100" height="40" as="geometry" />
        </mxCell>
        <mxCell id="we_YAr6GqCYZWqf67xZB-4" value="Nombre_pais" style="ellipse;whiteSpace=wrap;html=1;align=center;" parent="1" vertex="1">
          <mxGeometry x="350" y="-734" width="100" height="40" as="geometry" />
        </mxCell>
        <mxCell id="jVra7vX5_g9JPuBn6rs2-23" style="edgeStyle=orthogonalEdgeStyle;rounded=0;orthogonalLoop=1;jettySize=auto;html=1;exitX=1;exitY=0.5;exitDx=0;exitDy=0;entryX=0.5;entryY=0;entryDx=0;entryDy=0;endArrow=none;endFill=0;" parent="1" target="we_YAr6GqCYZWqf67xZB-8" edge="1">
          <mxGeometry relative="1" as="geometry">
            <mxPoint x="320" y="-440" as="sourcePoint" />
          </mxGeometry>
        </mxCell>
        <mxCell id="we_YAr6GqCYZWqf67xZB-8" value="Nombre_region" style="ellipse;whiteSpace=wrap;html=1;align=center;" parent="1" vertex="1">
          <mxGeometry x="330" y="-390" width="100" height="40" as="geometry" />
        </mxCell>
        <mxCell id="yvmqaUQFZ_uZkAevJMEQ-7" style="rounded=0;orthogonalLoop=1;jettySize=auto;html=1;exitX=0.5;exitY=1;exitDx=0;exitDy=0;entryX=0.5;entryY=0;entryDx=0;entryDy=0;endArrow=none;endFill=0;" edge="1" parent="1" source="we_YAr6GqCYZWqf67xZB-9" target="we_YAr6GqCYZWqf67xZB-1">
          <mxGeometry relative="1" as="geometry" />
        </mxCell>
        <mxCell id="we_YAr6GqCYZWqf67xZB-9" value="Codigo_pais(PK)" style="ellipse;whiteSpace=wrap;html=1;align=center;fontStyle=5" parent="1" vertex="1">
          <mxGeometry x="190" y="-734" width="140" height="40" as="geometry" />
        </mxCell>
        <mxCell id="jVra7vX5_g9JPuBn6rs2-39" style="rounded=0;orthogonalLoop=1;jettySize=auto;html=1;exitX=1;exitY=0.5;exitDx=0;exitDy=0;entryX=0;entryY=0.5;entryDx=0;entryDy=0;endArrow=none;endFill=0;" parent="1" source="we_YAr6GqCYZWqf67xZB-13" target="we_YAr6GqCYZWqf67xZB-2" edge="1">
          <mxGeometry relative="1" as="geometry" />
        </mxCell>
        <mxCell id="we_YAr6GqCYZWqf67xZB-13" value="ID_Sedes(PK)" style="ellipse;whiteSpace=wrap;html=1;align=center;fontStyle=5" parent="1" vertex="1">
          <mxGeometry x="-383.5" y="-674" width="100" height="40" as="geometry" />
        </mxCell>
        <mxCell id="jVra7vX5_g9JPuBn6rs2-38" style="rounded=0;orthogonalLoop=1;jettySize=auto;html=1;exitX=1;exitY=0.5;exitDx=0;exitDy=0;entryX=0;entryY=0.75;entryDx=0;entryDy=0;endArrow=none;endFill=0;" parent="1" source="we_YAr6GqCYZWqf67xZB-18" target="we_YAr6GqCYZWqf67xZB-2" edge="1">
          <mxGeometry relative="1" as="geometry" />
        </mxCell>
        <mxCell id="we_YAr6GqCYZWqf67xZB-18" value="Nombre_sede" style="ellipse;whiteSpace=wrap;html=1;align=center;" parent="1" vertex="1">
          <mxGeometry x="-403.5" y="-614" width="150" height="40" as="geometry" />
        </mxCell>
        <mxCell id="7MbL7kyo1_KdJmqyfnb3-3" style="edgeStyle=orthogonalEdgeStyle;rounded=0;orthogonalLoop=1;jettySize=auto;html=1;exitX=1;exitY=0.5;exitDx=0;exitDy=0;entryX=0;entryY=0.5;entryDx=0;entryDy=0;endArrow=none;endFill=0;" parent="1" source="jVra7vX5_g9JPuBn6rs2-8" target="jVra7vX5_g9JPuBn6rs2-28" edge="1">
          <mxGeometry relative="1" as="geometry" />
        </mxCell>
        <mxCell id="jVra7vX5_g9JPuBn6rs2-8" value="&lt;u&gt;Nombre_Seccion&lt;/u&gt;" style="ellipse;whiteSpace=wrap;html=1;align=center;fontStyle=1" parent="1" vertex="1">
          <mxGeometry x="-403.5" y="-430" width="150" height="40" as="geometry" />
        </mxCell>
        <mxCell id="yvmqaUQFZ_uZkAevJMEQ-6" style="edgeStyle=orthogonalEdgeStyle;rounded=0;orthogonalLoop=1;jettySize=auto;html=1;exitX=0.5;exitY=0;exitDx=0;exitDy=0;entryX=0;entryY=0.5;entryDx=0;entryDy=0;endArrow=none;endFill=0;" edge="1" parent="1" source="jVra7vX5_g9JPuBn6rs2-21" target="b7vmmGnuXxZgTWAznQhB-1">
          <mxGeometry relative="1" as="geometry" />
        </mxCell>
        <mxCell id="jVra7vX5_g9JPuBn6rs2-21" value="ID_Region(PK)" style="ellipse;whiteSpace=wrap;html=1;align=center;fontStyle=5" parent="1" vertex="1">
          <mxGeometry x="130" y="-390" width="100" height="40" as="geometry" />
        </mxCell>
        <mxCell id="jVra7vX5_g9JPuBn6rs2-28" value="SECCIONES" style="shape=ext;margin=3;double=1;whiteSpace=wrap;html=1;align=center;fillColor=#A9C4EB;fontStyle=1" parent="1" vertex="1">
          <mxGeometry x="-213.5" y="-430" width="100" height="40" as="geometry" />
        </mxCell>
        <mxCell id="jVra7vX5_g9JPuBn6rs2-34" style="rounded=0;orthogonalLoop=1;jettySize=auto;html=1;exitX=0.5;exitY=1;exitDx=0;exitDy=0;entryX=0.5;entryY=0;entryDx=0;entryDy=0;endArrow=ERzeroToMany;endFill=0;strokeWidth=2;" parent="1" source="jVra7vX5_g9JPuBn6rs2-29" target="jVra7vX5_g9JPuBn6rs2-28" edge="1">
          <mxGeometry relative="1" as="geometry">
            <mxPoint x="-173.5" y="-364" as="targetPoint" />
          </mxGeometry>
        </mxCell>
        <mxCell id="jVra7vX5_g9JPuBn6rs2-29" value="TIENE" style="shape=rhombus;perimeter=rhombusPerimeter;whiteSpace=wrap;html=1;align=center;fillColor=#FFB570;fontStyle=1" parent="1" vertex="1">
          <mxGeometry x="-223.5" y="-544" width="120" height="60" as="geometry" />
        </mxCell>
        <mxCell id="jVra7vX5_g9JPuBn6rs2-42" style="rounded=0;orthogonalLoop=1;jettySize=auto;html=1;exitX=1;exitY=0.5;exitDx=0;exitDy=0;entryX=0;entryY=0.5;entryDx=0;entryDy=0;endArrow=ERmandOne;endFill=0;strokeWidth=2;" parent="1" source="jVra7vX5_g9JPuBn6rs2-40" target="we_YAr6GqCYZWqf67xZB-1" edge="1">
          <mxGeometry relative="1" as="geometry" />
        </mxCell>
        <mxCell id="jVra7vX5_g9JPuBn6rs2-40" value="ESTÁ EN" style="shape=rhombus;perimeter=rhombusPerimeter;whiteSpace=wrap;html=1;align=center;fillColor=#FFB570;fontStyle=1" parent="1" vertex="1">
          <mxGeometry y="-654" width="120" height="60" as="geometry" />
        </mxCell>
        <mxCell id="jVra7vX5_g9JPuBn6rs2-44" value="" style="rounded=0;orthogonalLoop=1;jettySize=auto;html=1;exitX=0.5;exitY=1;exitDx=0;exitDy=0;entryX=0.5;entryY=0;entryDx=0;entryDy=0;startArrow=ERoneToMany;startFill=0;strokeWidth=2;endArrow=none;endFill=0;" parent="1" source="we_YAr6GqCYZWqf67xZB-1" target="jVra7vX5_g9JPuBn6rs2-26" edge="1">
          <mxGeometry relative="1" as="geometry">
            <mxPoint x="280" y="-610" as="sourcePoint" />
            <mxPoint x="270" y="-370" as="targetPoint" />
          </mxGeometry>
        </mxCell>
        <mxCell id="jVra7vX5_g9JPuBn6rs2-26" value="PERTENECE" style="shape=rhombus;perimeter=rhombusPerimeter;whiteSpace=wrap;html=1;align=center;fillColor=#FFB570;strokeColor=#000000;fontStyle=1" parent="1" vertex="1">
          <mxGeometry x="220" y="-574" width="120" height="60" as="geometry" />
        </mxCell>
        <mxCell id="jVra7vX5_g9JPuBn6rs2-50" style="rounded=0;orthogonalLoop=1;jettySize=auto;html=1;entryX=0.5;entryY=0;entryDx=0;entryDy=0;endArrow=none;endFill=0;startArrow=ERzeroToMany;startFill=0;strokeWidth=2;exitX=0.5;exitY=1;exitDx=0;exitDy=0;" parent="1" source="4xdMWundjYPgKHB7vCGN-2" target="jVra7vX5_g9JPuBn6rs2-48" edge="1">
          <mxGeometry relative="1" as="geometry">
            <mxPoint x="-169.5" y="-834" as="sourcePoint" />
          </mxGeometry>
        </mxCell>
        <mxCell id="yvmqaUQFZ_uZkAevJMEQ-1" style="rounded=0;orthogonalLoop=1;jettySize=auto;html=1;exitX=1;exitY=0.5;exitDx=0;exitDy=0;entryX=0;entryY=0.5;entryDx=0;entryDy=0;endArrow=none;endFill=0;" edge="1" parent="1" source="jVra7vX5_g9JPuBn6rs2-46" target="4xdMWundjYPgKHB7vCGN-2">
          <mxGeometry relative="1" as="geometry">
            <mxPoint x="-229.99999999999977" y="-819.4615384615386" as="targetPoint" />
          </mxGeometry>
        </mxCell>
        <mxCell id="jVra7vX5_g9JPuBn6rs2-46" value="URL(PK)" style="ellipse;whiteSpace=wrap;html=1;align=center;fontStyle=5" parent="1" vertex="1">
          <mxGeometry x="-353.5" y="-830" width="100" height="40" as="geometry" />
        </mxCell>
        <mxCell id="jVra7vX5_g9JPuBn6rs2-51" style="rounded=0;orthogonalLoop=1;jettySize=auto;html=1;exitX=0.5;exitY=1;exitDx=0;exitDy=0;entryX=0.5;entryY=0;entryDx=0;entryDy=0;endArrow=ERmandOne;endFill=0;strokeWidth=2;" parent="1" source="jVra7vX5_g9JPuBn6rs2-48" target="we_YAr6GqCYZWqf67xZB-2" edge="1">
          <mxGeometry relative="1" as="geometry" />
        </mxCell>
        <mxCell id="jVra7vX5_g9JPuBn6rs2-48" value="ES UTILIZADA POR" style="shape=rhombus;perimeter=rhombusPerimeter;whiteSpace=wrap;html=1;align=center;fillColor=#FFB570;fontStyle=1" parent="1" vertex="1">
          <mxGeometry x="-233.5" y="-744" width="140" height="60" as="geometry" />
        </mxCell>
        <mxCell id="4xdMWundjYPgKHB7vCGN-2" value="RED SOCIAL" style="shape=ext;margin=3;double=1;whiteSpace=wrap;html=1;align=center;fillColor=#A9C4EB;fontStyle=1" parent="1" vertex="1">
          <mxGeometry x="-213.5" y="-830" width="100" height="40" as="geometry" />
        </mxCell>
        <mxCell id="b7vmmGnuXxZgTWAznQhB-1" value="Region" style="whiteSpace=wrap;html=1;align=center;fillColor=#A9C4EB;fontStyle=1" parent="1" vertex="1">
          <mxGeometry x="230" y="-460" width="100" height="40" as="geometry" />
        </mxCell>
        <mxCell id="yvmqaUQFZ_uZkAevJMEQ-5" style="rounded=0;orthogonalLoop=1;jettySize=auto;html=1;exitX=1;exitY=0;exitDx=0;exitDy=0;entryX=0;entryY=1;entryDx=0;entryDy=0;endArrow=none;endFill=0;" edge="1" parent="1" source="we_YAr6GqCYZWqf67xZB-1" target="we_YAr6GqCYZWqf67xZB-4">
          <mxGeometry relative="1" as="geometry">
            <mxPoint x="390" y="-700" as="targetPoint" />
          </mxGeometry>
        </mxCell>
      </root>
    </mxGraphModel>
  </diagram>
</mxfile>
